<svg xmlns="http://www.w3.org/2000/svg" xmlns:xlink="http://www.w3.org/1999/xlink" width="373.36" height="93.76" viewBox="0 0 373.36 93.76"><defs><style>.cls-1,.cls-12,.cls-23,.cls-27,.cls-5{fill:none;}.cls-12,.cls-2,.cls-21,.cls-23,.cls-25,.cls-27,.cls-5,.cls-9{font-size:23px;font-family:AvenirNext-Medium, Avenir Next;font-weight:500;}.cls-2,.cls-9{fill:#d86868;}.cls-3{letter-spacing:0.02em;}.cls-4{clip-path:url(#clip-path);}.cls-12,.cls-5{stroke:#d86868;stroke-width:0.5px;}.cls-12,.cls-23,.cls-27,.cls-5{stroke-miterlimit:10;}.cls-6{clip-path:url(#clip-path-2);}.cls-7{clip-path:url(#clip-path-3);}.cls-8{clip-path:url(#clip-path-4);}.cls-12,.cls-14,.cls-25,.cls-27,.cls-9{letter-spacing:0.02em;}.cls-10{letter-spacing:0em;}.cls-11{clip-path:url(#clip-path-5);}.cls-13{clip-path:url(#clip-path-6);}.cls-15{letter-spacing:0.02em;}.cls-16{clip-path:url(#clip-path-7);}.cls-17{font-size:80px;font-family:Didot;}.cls-18{letter-spacing:0.02em;}.cls-19{letter-spacing:0.02em;}.cls-20{letter-spacing:0.04em;}.cls-21,.cls-25{fill:#f9f9f9;}.cls-22{clip-path:url(#clip-path-8);}.cls-23,.cls-27{stroke:#000;stroke-width:0.1px;}.cls-24{clip-path:url(#clip-path-9);}.cls-26{clip-path:url(#clip-path-10);}.cls-28{clip-path:url(#clip-path-11);}</style><clipPath id="clip-path"><rect class="cls-1" x="68.25" y="31.81" width="35.45" height="21.28"/></clipPath><clipPath id="clip-path-2"><rect class="cls-1" x="103.08" y="48.09" width="3" height="5"/></clipPath><clipPath id="clip-path-3"><rect class="cls-1" x="108.94" y="31.81" width="17.12" height="21.28"/></clipPath><clipPath id="clip-path-4"><rect class="cls-1" x="125.84" y="31.81" width="14.83" height="21.28"/></clipPath><clipPath id="clip-path-5"><rect class="cls-1" x="140.03" y="31.81" width="20.59" height="21.28"/></clipPath><clipPath id="clip-path-6"><rect class="cls-1" x="160.25" y="31.39" width="13.59" height="22.11"/></clipPath><clipPath id="clip-path-7"><rect class="cls-1" x="173.31" y="31.39" width="104.71" height="22.11"/></clipPath><clipPath id="clip-path-8"><rect class="cls-1" x="69.59" y="33.81" width="33.12" height="17.28"/></clipPath><clipPath id="clip-path-9"><rect class="cls-1" x="110.28" y="33.81" width="16.48" height="17.28"/></clipPath><clipPath id="clip-path-10"><rect class="cls-1" x="141.3" y="33.81" width="18.33" height="17.28"/></clipPath><clipPath id="clip-path-11"><rect class="cls-1" x="174.58" y="33.39" width="103.33" height="18.11"/></clipPath><symbol id="New_Symbol" data-name="New Symbol" viewBox="0 0 373.36 93.76"><text class="cls-2" transform="translate(68.64 50.59)"><tspan class="cls-3">A</tspan><tspan x="16.79" y="0">N</tspan></text><g class="cls-4"><text class="cls-5" transform="translate(68.64 50.59)"><tspan class="cls-3">A</tspan><tspan x="16.79" y="0">N</tspan></text></g><text class="cls-2" transform="translate(103.58 50.59)"> </text><g class="cls-6"><text class="cls-5" transform="translate(103.58 50.59)"> </text></g><text class="cls-2" transform="translate(109.33 50.59)">A</text><g class="cls-7"><text class="cls-5" transform="translate(109.33 50.59)">A</text></g><text class="cls-2" transform="translate(126.09 50.59)">R</text><g class="cls-8"><text class="cls-5" transform="translate(126.09 50.59)">R</text></g><text class="cls-9" transform="translate(140.35 50.59)">T<tspan class="cls-10" x="13.5" y="0">I</tspan></text><g class="cls-11"><text class="cls-12" transform="translate(140.35 50.59)">T<tspan class="cls-10" x="13.5" y="0">I</tspan></text></g><text class="cls-2" transform="translate(160.5 50.59)">S</text><g class="cls-13"><text class="cls-5" transform="translate(160.5 50.59)">S</text></g><text class="cls-2" transform="translate(173.63 50.59)"><tspan class="cls-14">T</tspan><tspan class="cls-3" x="13.5" y="0">’S </tspan><tspan class="cls-14" x="39.31" y="0">S</tspan><tspan class="cls-3" x="52.81" y="0">H</tspan><tspan class="cls-15" x="70.01" y="0">O</tspan><tspan x="89.95" y="0">P</tspan></text><g class="cls-16"><text class="cls-5" transform="translate(173.63 50.59)"><tspan class="cls-14">T</tspan><tspan class="cls-3" x="13.5" y="0">’S </tspan><tspan class="cls-14" x="39.31" y="0">S</tspan><tspan class="cls-3" x="52.81" y="0">H</tspan><tspan class="cls-15" x="70.01" y="0">O</tspan><tspan x="89.95" y="0">P</tspan></text></g><text class="cls-17" transform="translate(0 68.84)"><tspan class="cls-18">ST</tspan><tspan class="cls-19" x="111.12" y="0">U</tspan><tspan class="cls-18" x="173.28" y="0">D</tspan><tspan class="cls-19" x="240" y="0">I</tspan><tspan x="272.48" y="0">O</tspan></text><text class="cls-17" transform="translate(281.28 69.84)"><tspan class="cls-20">9</tspan><tspan x="47.6" y="0">9</tspan></text><text class="cls-21" transform="translate(69.64 50.59)"><tspan class="cls-3">A</tspan><tspan x="16.79" y="0">N</tspan></text><g class="cls-22"><text class="cls-23" transform="translate(69.64 50.59)"><tspan class="cls-3">A</tspan><tspan x="16.79" y="0">N</tspan></text></g><text class="cls-21" transform="translate(104.58 50.59)"> </text><text class="cls-23" transform="translate(104.58 50.59)"> </text><text class="cls-21" transform="translate(110.33 50.59)">A</text><g class="cls-24"><text class="cls-23" transform="translate(110.33 50.59)">A</text></g><text class="cls-21" transform="translate(127.09 50.59)">R</text><text class="cls-23" transform="translate(127.09 50.59)">R</text><text class="cls-25" transform="translate(141.35 50.59)">T<tspan class="cls-10" x="13.5" y="0">I</tspan></text><g class="cls-26"><text class="cls-27" transform="translate(141.35 50.59)">T<tspan class="cls-10" x="13.5" y="0">I</tspan></text></g><text class="cls-21" transform="translate(161.5 50.59)">S</text><text class="cls-23" transform="translate(161.5 50.59)">S</text><text class="cls-21" transform="translate(174.63 50.59)"><tspan class="cls-14">T</tspan><tspan class="cls-3" x="13.5" y="0">’S </tspan><tspan class="cls-14" x="39.31" y="0">S</tspan><tspan class="cls-3" x="52.81" y="0">H</tspan><tspan class="cls-15" x="70.01" y="0">O</tspan><tspan x="89.95" y="0">P</tspan></text><g class="cls-28"><text class="cls-23" transform="translate(174.63 50.59)"><tspan class="cls-14">T</tspan><tspan class="cls-3" x="13.5" y="0">’S </tspan><tspan class="cls-14" x="39.31" y="0">S</tspan><tspan class="cls-3" x="52.81" y="0">H</tspan><tspan class="cls-15" x="70.01" y="0">O</tspan><tspan x="89.95" y="0">P</tspan></text></g></symbol></defs><title>logo</title><g id="Layer_2" data-name="Layer 2"><g id="Layer_1-2" data-name="Layer 1"><use width="373.36" height="93.76" xlink:href="#New_Symbol"/></g></g></svg>