<svg xmlns="http://www.w3.org/2000/svg" width="35.14" height="30.41" viewBox="0 0 35.14 30.41"><title>shopping</title><g id="Layer_2" data-name="Layer 2"><g id="Layer_1-2" data-name="Layer 1"><path d="M21.93,19.51H12.76c-.38,0-.54.06-.33.46s.33.76.53,1.11a1.68,1.68,0,0,0,1.61.83h15.9a.74.74,0,0,1,.85.75c0,.48-.3.77-.87.77H14.36A3.4,3.4,0,0,1,11.16,21,37,37,0,0,1,10,17c-.09-.37-.21-.54-.65-.53-1.3,0-2.61,0-3.91,0a.8.8,0,0,1-.9-.87c0-.48.32-.75.9-.75,1.21,0,2.42,0,3.63,0,.33,0,.4-.07.32-.4C9.14,13.3,9.15,13.3,8,13.29c-.13,0-.26,0-.38,0a.76.76,0,0,1,0-1.52,8.22,8.22,0,0,1,.86,0c.22,0,.29-.07.24-.28-.09-.38-.19-.77-.27-1.16s-.3-.19-.46-.19H2.37a.76.76,0,0,1-.84-.72.75.75,0,0,1,.84-.81c1.72,0,3.44,0,5.15,0,.37,0,.46-.07.36-.45C7.56,6.94,7.3,5.7,7,4.47A5.08,5.08,0,0,0,5.64,1.88a1.37,1.37,0,0,0-1-.34H.92C.32,1.53,0,1.26,0,.75S.32,0,.9,0C2.19,0,3.48,0,4.77,0A3.1,3.1,0,0,1,7.65,1.93,13.18,13.18,0,0,1,8.7,5c.07.31.17.44.52.44,7.31,0,14.61,0,21.92,0H34.2c.77,0,1.07.35.89,1.12-.31,1.36-.66,2.72-1,4.07l-1.92,7.92c-.2.83-.35.94-1.21.94ZM21.31,7.08H10.38c-1.21,0-1.2,0-.9,1.17.07.29.19.37.48.37,1.19,0,2.38,0,3.58,0,.65,0,1,.26,1,.77s-.33.76-1,.76H11c-1,0-1,0-.78,1a1.4,1.4,0,0,1,.06.28c0,.28.14.37.42.36.73,0,1.46,0,2.2,0,.54,0,.85.27.86.74s-.31.78-.87.78-1.24,0-1.86,0c-.23,0-.28.08-.23.28s.18.61.23.92.18.34.45.34h3.72c.54,0,.85.29.85.75a.78.78,0,0,1-.85.86H12.66c-1.19,0-1.18,0-.9,1.13.08.33.23.41.55.41,2.37,0,4.74,0,7.11,0H30.26c.35,0,.51-.09.58-.44.1-.55.24-1.08.38-1.62.68-2.78,1.35-5.56,2.05-8.33.1-.42.07-.54-.4-.53C29,7.09,25.16,7.08,21.31,7.08Z"/><path d="M30.56,27.36a3.06,3.06,0,1,1-3.09-3.17A3,3,0,0,1,30.56,27.36Zm-1.53,0a1.53,1.53,0,1,0-1.53,1.51A1.54,1.54,0,0,0,29,27.36Z"/><path d="M15.21,30.4a3.11,3.11,0,0,1,.09-6.21,3.05,3.05,0,0,1,3,3.23A3,3,0,0,1,15.21,30.4Zm1.6-3.07a1.53,1.53,0,1,0-3.06.05,1.53,1.53,0,0,0,3.06-.05Z"/><path d="M3,13.29c-.73,0-1.46,0-2.19,0a.76.76,0,1,1,0-1.52H5.27a.74.74,0,0,1,.84.76.75.75,0,0,1-.84.76c-.75,0-1.49,0-2.24,0Z"/></g></g></svg>